<?xml version="1.0" encoding="UTF-8" standalone="no"?><svg xmlns="http://www.w3.org/2000/svg" xmlns:xlink="http://www.w3.org/1999/xlink" data-name="Layer 1" fill="#000000" height="200" preserveAspectRatio="xMidYMid meet" version="1" viewBox="0.0 0.0 200.0 200.0" width="200" zoomAndPan="magnify"><g id="change1_1"><path d="M100,0C44.77,0,0,44.77,0,100s44.77,100,100,100,100-44.77,100-100S155.23,0,100,0Zm19.1,158.94c-3.06,.59-4.15-1.29-4.15-2.91,0-1.99,.08-8.51,.08-16.61,0-5.65-1.93-9.34-4.09-11.21,13.43-1.5,27.54-6.62,27.54-29.88,0-6.61-2.33-12.02-6.2-16.25,.62-1.53,2.69-7.69-.6-16.02,0,0-5.05-1.63-16.57,6.21-4.82-1.34-9.98-2.01-15.1-2.04-5.13,.03-10.29,.7-15.1,2.04-11.52-7.83-16.58-6.21-16.58-6.21-3.28,8.34-1.21,14.49-.59,16.02-3.86,4.23-6.21,9.64-6.21,16.25,0,23.2,14.08,28.39,27.47,29.92-1.72,1.51-3.28,4.18-3.83,8.09-3.44,1.55-12.17,4.22-17.55-5.03,0,0-3.18-5.81-9.23-6.24,0,0-5.89-.08-.41,3.68,0,0,3.95,1.86,6.69,8.86,0,0,3.54,11.78,20.32,8.12,.03,5.05,.08,8.86,.08,10.3,0,1.6-1.1,3.47-4.12,2.92-23.97-8.01-41.25-30.7-41.25-57.45,0-33.45,27-60.55,60.31-60.55s60.31,27.11,60.31,60.55c0,26.74-17.26,49.42-41.21,57.44Z" fill="#ffffff"/></g></svg>